<?xml version="1.0" encoding="UTF-8"?>
<svg width="149px" height="43px" viewBox="0 0 149 43" version="1.1" xmlns="http://www.w3.org/2000/svg" xmlns:xlink="http://www.w3.org/1999/xlink">
    <!-- Generator: Sketch 59 (86127) - https://sketch.com -->
    <title>bunnynet-light</title>
    <desc>Created with Sketch.</desc>
    <defs>
        <linearGradient x1="29.4352883%" y1="45.3176687%" x2="80.6309178%" y2="58.7602308%" id="linearGradient-1">
            <stop stop-color="#FEBE2D" offset="0%"></stop>
            <stop stop-color="#F85E23" offset="100%"></stop>
        </linearGradient>
        <linearGradient x1="-33.9398264%" y1="50.04095%" x2="153.690572%" y2="50.04095%" id="linearGradient-2">
            <stop stop-color="#FBAA19" offset="0%"></stop>
            <stop stop-color="#EF3E23" offset="100%"></stop>
        </linearGradient>
        <linearGradient x1="32.8908646%" y1="96.6666487%" x2="67.1130842%" y2="3.11111053%" id="linearGradient-3">
            <stop stop-color="#F78D1E" offset="0%"></stop>
            <stop stop-color="#F37121" offset="100%"></stop>
        </linearGradient>
        <linearGradient x1="14.4028408%" y1="75.177305%" x2="63.2274953%" y2="12.4480313%" id="linearGradient-4">
            <stop stop-color="#FEBE2D" offset="0%"></stop>
            <stop stop-color="#F04E23" offset="100%"></stop>
        </linearGradient>
        <linearGradient x1="69.8803244%" y1="3.21352923%" x2="33.1012862%" y2="81.5809617%" id="linearGradient-5">
            <stop stop-color="#EA4425" offset="0%"></stop>
            <stop stop-color="#FDBB27" offset="100%"></stop>
        </linearGradient>
        <linearGradient x1="-40.1271778%" y1="49.9893198%" x2="144.708119%" y2="49.9893198%" id="linearGradient-6">
            <stop stop-color="#F47920" offset="0%"></stop>
            <stop stop-color="#E93825" offset="100%"></stop>
        </linearGradient>
        <linearGradient x1="-143.227273%" y1="49.9166667%" x2="243.363636%" y2="49.9166667%" id="linearGradient-7">
            <stop stop-color="#FDCA0B" offset="0%"></stop>
            <stop stop-color="#F5841F" offset="100%"></stop>
        </linearGradient>
        <linearGradient x1="39.6769732%" y1="-25.0126839%" x2="63.8868118%" y2="131.608321%" id="linearGradient-8">
            <stop stop-color="#E73C25" offset="0%"></stop>
            <stop stop-color="#FAA21B" offset="100%"></stop>
        </linearGradient>
        <linearGradient x1="-562.993864%" y1="49.9979816%" x2="562.904684%" y2="49.9979816%" id="linearGradient-9">
            <stop stop-color="#FDBA12" offset="0%"></stop>
            <stop stop-color="#F7921E" offset="100%"></stop>
        </linearGradient>
        <linearGradient x1="1.98261285%" y1="41.5011038%" x2="106.167127%" y2="60.0441501%" id="linearGradient-10">
            <stop stop-color="#FEBE2D" offset="0%"></stop>
            <stop stop-color="#F04E23" offset="100%"></stop>
        </linearGradient>
    </defs>
    <g id="Page-1" stroke="none" stroke-width="1" fill="none" fill-rule="evenodd">
        <g id="bunnynet-light">
            <path d="M125.05,30.91 C124.518166,30.9565037 124.096504,31.3781664 124.05,31.91 C123.97,32.5 124.29,32.91 124.8,32.91 C125.328244,32.855872 125.745872,32.438244 125.8,31.91 C125.869942,31.6721932 125.822688,31.4152993 125.672701,31.2179474 C125.522713,31.0205954 125.287851,30.9062836 125.04,30.91 L125.05,30.91 Z M132.41,25.2 C131.302177,25.175309 130.263866,25.7382026 129.68,26.68 L129.88,25.28 L128.17,25.28 L127.08,32.81 L128.79,32.81 L129.33,29.11 C129.384558,27.9425258 130.313081,27.0053651 131.48,26.94 C132.48,26.94 132.95,27.59 132.8,28.64 L132.2,32.81 L133.92,32.81 L134.6,28.11 C134.86,26.32 134.03,25.2 132.41,25.2 L132.41,25.2 Z M139.62,25.2 C137.461113,25.2377633 135.678985,26.8990689 135.49,29.05 C135.17,31.31 136.37,32.86 138.56,32.86 C139.738178,32.8729989 140.871234,32.407508 141.7,31.57 L140.93,30.57 C140.395352,31.0955617 139.679582,31.3961851 138.93,31.41 C138.464676,31.4352649 138.00996,31.2649522 137.675728,30.9402155 C137.341496,30.6154788 137.158153,30.1658589 137.17,29.7 L142.36,29.7 C142.93,26.96 142.11,25.23 139.64,25.23 L139.62,25.2 Z M137.29,28.44 C137.497188,27.4117835 138.381857,26.6594015 139.43,26.62 C139.910353,26.570951 140.384163,26.7609266 140.697575,27.1282375 C141.010987,27.4955484 141.124031,27.9933518 141,28.46 L137.29,28.44 Z M147.12,31 C146.812403,31.1730344 146.471536,31.2787031 146.12,31.31 C145.66,31.31 145.42,31.07 145.52,30.31 L146.01,26.91 L148.01,26.91 L148.2,25.58 L146.2,25.58 L146.5,23.5 L144.81,23.5 L144.51,25.58 L143.51,25.58 L143.33,26.91 L144.33,26.91 L143.8,30.63 C143.57,32.18 144.39,32.89 145.54,32.89 C146.191356,32.8737148 146.826556,32.683845 147.38,32.34 L147.12,31 Z" id="Shape" fill="url(#linearGradient-1)"></path>
            <path d="M44.62,22.83 C45.1588263,22.8259486 45.6468532,23.1474113 45.8558665,23.6440637 C46.0648797,24.1407162 45.9535722,24.7144053 45.5739942,25.0968589 C45.1944162,25.4793125 44.6215835,25.5949465 44.1233677,25.3896875 C43.625152,25.1844284 43.3,24.6988415 43.3,24.16 C43.3,23.4293489 43.8893695,22.8354936 44.62,22.83 L44.62,22.83 Z M57.83,19.14 C58.9551033,18.281581 60.3250401,17.8050813 61.74,17.78 C63.4161637,17.7558263 65.0194182,18.464326 66.13,19.72 C67.4152379,21.3588232 67.9161107,23.4793065 67.5,25.52 C67.1623114,28.9990404 64.8129084,31.9553726 61.5,33.07 C60.8263376,33.2600615 60.1299562,33.3576222 59.43,33.36 C57.8816051,33.4313238 56.4050754,32.7024996 55.52,31.43 L55.34,32.71 C55.3164857,32.8301195 55.2123754,32.9175722 55.09,32.92 L52,32.92 C51.9355875,32.924029 51.8728997,32.8982164 51.83,32.85 C51.8055468,32.7924915 51.8055468,32.7275085 51.83,32.67 L52.9,25.29 L48.9,25.29 C48.2781817,25.284569 47.775431,24.7818183 47.77,24.16 L47.77,24.16 C47.7575313,23.5562663 48.2180121,23.0475446 48.82,23 L57.44,23 C56.8400906,23.7351644 56.4527724,24.6204631 56.32,25.56 C56.01,27.71 57.08,29.72 59.41,29.72 C61.7284521,29.610167 63.621276,27.8276871 63.87,25.52 L63.87,25.52 C64.17,23.41 62.96,21.41 60.72,21.41 L50.89,21.41 C50.2643041,21.4045112 49.7599759,20.89572 49.76,20.27 L49.76,20.27 C49.765431,19.6481817 50.2681817,19.145431 50.89,19.14 L53.74,19.14 L54.55,13.48 C54.5735143,13.3598805 54.6776246,13.2724278 54.8,13.27 L58,13.27 C58.0602316,13.2724121 58.11735,13.2974014 58.16,13.34 C58.1844532,13.3975085 58.1844532,13.4624915 58.16,13.52 L57.35,19.14 L57.83,19.14 Z M77.39,31.62 C76.3368829,32.7860409 74.8199241,33.4236033 73.25,33.36 C69.31,33.36 68.25,30.47 68.74,27.05 L70,18.44 C70.0228017,18.3178878 70.1259798,18.2270911 70.25,18.22 L73.4,18.22 C73.4625924,18.2214819 73.521259,18.2508153 73.56,18.3 C73.5839618,18.3541336 73.5839618,18.4158664 73.56,18.47 L72.44,26.22 C72.18,28.06 72.44,29.72 74.59,29.71 C76.74,29.7 77.59,28.23 77.92,26.29 L79.05,18.44 C79.0728017,18.3178878 79.1759798,18.2270911 79.3,18.22 L82.47,18.22 C82.5325924,18.2214819 82.591259,18.2508153 82.63,18.3 C82.6539618,18.3541336 82.6539618,18.4158664 82.63,18.47 L80.63,32.71 C80.6064857,32.8301195 80.5023754,32.9175722 80.38,32.92 L77.38,32.92 C77.3155875,32.924029 77.2528997,32.8982164 77.21,32.85 C77.1686193,32.7997753 77.1504517,32.7343716 77.16,32.67 L77.31,31.62 L77.39,31.62 Z M88.25,19.51 C89.3060183,18.3610798 90.8103096,17.7294235 92.37,17.78 C96.28,17.78 97.37,20.66 96.85,24.12 L95.61,32.71 C95.5947951,32.8307149 95.491665,32.9209538 95.37,32.92 L92.2,32.92 C92.1384675,32.9240125 92.0788145,32.8979143 92.04,32.85 C91.9946134,32.8019485 91.9758988,32.7345759 91.99,32.67 L93.1,25 C93.36,23.19 93.17,21.47 90.98,21.48 C88.79,21.49 87.98,22.99 87.68,24.9 L86.54,32.76 C86.5208281,32.8785613 86.4200571,32.966736 86.3,32.97 L83.13,32.97 C83.0658326,32.9725973 83.0037338,32.9470272 82.96,32.9 C82.9343315,32.8427453 82.9343315,32.7772547 82.96,32.72 L84.96,18.49 C84.979274,18.3659182 85.0844746,18.2733416 85.21,18.27 L88.21,18.27 C88.2733359,18.2683216 88.3333412,18.2983242 88.37,18.35 C88.4153367,18.3939706 88.4343118,18.4584857 88.42,18.52 L88.27,19.52 L88.25,19.51 Z M103.14,19.51 C104.196018,18.3610798 105.70031,17.7294235 107.26,17.78 C111.17,17.78 112.26,20.66 111.74,24.12 L110.5,32.71 C110.480828,32.8285613 110.380057,32.916736 110.26,32.92 L107.09,32.92 C107.028468,32.9240125 106.968814,32.8979143 106.93,32.85 C106.884613,32.8019485 106.865899,32.7345759 106.88,32.67 L108,25 C108.26,23.19 108.07,21.47 105.88,21.48 C103.69,21.49 102.88,22.99 102.57,24.9 L101.44,32.76 C101.420828,32.8785613 101.320057,32.966736 101.2,32.97 L98,32.97 C97.9358326,32.9725973 97.8737338,32.9470272 97.83,32.9 C97.8043315,32.8427453 97.8043315,32.7772547 97.83,32.72 L99.83,18.49 C99.8485019,18.3694548 99.9483039,18.2779697 100.07,18.27 L103.07,18.27 C103.133336,18.2683216 103.193341,18.2983242 103.23,18.35 C103.270929,18.3965159 103.289228,18.458732 103.28,18.52 L103.13,19.52 L103.14,19.51 Z M115.54,32.13 L112.54,18.52 C112.506216,18.4576135 112.506216,18.3823865 112.54,18.32 C112.58406,18.258616 112.654456,18.2215656 112.73,18.2199645 L116.11,18.2199645 C116.212,18.2181356 116.300585,18.2898471 116.32,18.39 L118.07,27.2 L122.33,18.37 C122.36633,18.2801743 122.453111,18.2210058 122.55,18.2199645 L126,18.2199645 C126.076031,18.2194709 126.145787,18.2620992 126.18,18.33 C126.219299,18.3980682 126.219299,18.4819318 126.18,18.55 L116.4,37.76 C116.360626,37.8459108 116.274501,37.9007177 116.18,37.9001527 L112.79,37.9001527 C112.713286,37.9030681 112.642265,37.8596661 112.61,37.79 C112.570701,37.7219318 112.570701,37.6380682 112.61,37.57 L115.54,32.13 Z" id="Shape" fill="#183D6D"></path>
            <path d="M21,6.85 L30.87,12.21 L21.75,0 C20.2759177,1.97822822 19.9888984,4.59967135 21,6.85 L21,6.85 Z" id="Path" fill="url(#linearGradient-2)"></path>
            <path d="M16.54,26.73 C17.7800264,26.730049 18.7862599,27.7333715 18.789911,28.9733925 C18.7935429,30.2134136 17.7932196,31.2226286 16.5532149,31.23 C15.3132102,31.2372927 14.3010225,30.2399774 14.29,29 C14.2846647,28.3998052 14.5193602,27.8223574 14.9418967,27.396065 C15.3644332,26.9697726 15.9397815,26.73 16.54,26.73 L16.54,26.73 Z" id="Path" fill="url(#linearGradient-3)"></path>
            <path d="M9.67,1.79 L37.31,16.79 C37.7711606,17.0143241 38.0638473,17.4821741 38.0638473,17.995 C38.0638473,18.5078259 37.7711606,18.9756759 37.31,19.2 C35.2195524,20.4579157 32.9301642,21.3506757 30.54,21.84 L24.79,33.64 C24.79,33.64 22.97,37.78 17.96,36.19 C20.06,34.09 22.6,32.19 22.6,28.96 C22.6,25.6076316 19.8823684,22.8900001 16.53,22.8900001 C13.1776316,22.8900001 10.46,25.6076316 10.46,28.96 C10.46,33.18 14.62,34.96 16.93,37.89 C17.9703951,39.3627359 17.832531,41.363854 16.6,42.68 C13.73,39.84 8.18,35.05 5.9,31.91 C4.65347852,30.3269066 3.96762686,28.3748672 3.95,26.36 C4.17432898,21.9678993 7.12448134,18.1862677 11.33,16.9 C12.5891396,16.5332363 13.8997077,16.3744819 15.21,16.43 C17.0369827,16.5684111 18.8116805,17.1042333 20.41,18 C22.86,19.44 24.05,19.06 25.74,17.64 C26.74,16.82 27.83,14.15 26.14,13.53 C25.587447,13.3497251 25.022661,13.2093641 24.45,13.11 C21.31,12.5 15.82,11.92 13.8,10.77 C10.59,9 8.43,5.35 9.67,1.79 Z" id="Path" fill="url(#linearGradient-4)"></path>
            <path d="M22.55,28.99 C23.83,22.26 17,15.84 11.76,16.8 L12.11,16.72 C11.83,16.78 11.56,16.85 11.3,16.93 C7.09448134,18.2162677 4.14432898,21.9978993 3.92,26.39 C3.95187229,28.4107619 4.65553172,30.3634168 5.92,31.94 C8.2,35.08 13.75,39.87 16.62,42.71 C17.852531,41.393854 17.9903951,39.3927359 16.95,37.92 C14.59,35 10.43,33.21 10.43,29 C10.43,25.6476316 13.1476316,22.93 16.5,22.93 C19.8523684,22.93 22.57,25.6476316 22.57,29 L22.55,28.99 Z" id="Shape" fill="url(#linearGradient-5)"></path>
            <path d="M9.67,1.79 L30.67,13.23 L30.67,13.23 L31.27,13.56 C31.77,13.95 32.27,14.73 31.62,16.17 C30.62,18.32 26.62,20.4 22.01,18.77 C23.45,19.19 24.43,18.71 25.69,17.65 C26.69,16.83 27.78,14.16 26.09,13.54 C25.537447,13.3597251 24.972661,13.2193641 24.4,13.12 C21.26,12.51 15.77,11.93 13.75,10.78 C10.59,9 8.43,5.35 9.67,1.79 Z" id="Path" fill="url(#linearGradient-6)"></path>
            <path d="M9.67,1.79 C11.84,9.79 25.05,10.45 31.67,13.79 L9.67,1.79 Z" id="Path" fill="url(#linearGradient-7)"></path>
            <path d="M16.9,37.92 C14.59,35 10.43,33.21 10.43,29 C10.4418178,25.946602 12.7199738,23.3772532 15.75,23 C10.9243431,23.0164606 7.0164606,26.9243431 6.99998539,31.75 C6.99890621,32.3413162 7.05922982,32.9311471 7.18,33.51 C9.09,35.67 11.85,38.22 14.18,40.38 C15.09,41.23 15.93,42.03 16.62,42.71 C17.1941689,42.0447548 17.544076,41.2154751 17.62,40.34 L17.62,40.34 C17.6746432,39.473467 17.4194484,38.6157289 16.9,37.92 L16.9,37.92 Z" id="Path" fill="url(#linearGradient-8)"></path>
            <path d="M22.52,29.71 C22.5515717,29.4712681 22.5682706,29.2308043 22.57,28.99 C23.83,22.26 17,15.84 11.76,16.8 C12.878886,16.5296125 14.0297792,16.4151962 15.18,16.46 C22.05,16.74 23.97,24.08 22.52,29.71 Z" id="Path" fill="url(#linearGradient-9)"></path>
            <path d="M2.26,14.84 L2.26,14.84 C3.50977937,14.8455057 4.52,15.8602085 4.52,17.11 L4.52,19.37 L2.26,19.37 C1.01183647,19.37 0,18.3581635 0,17.11 L0,17.11 C0,15.8602085 1.01022063,14.8455057 2.26,14.84 L2.26,14.84 Z" id="Path" fill="url(#linearGradient-10)"></path>
        </g>
    </g>
</svg>