<svg width="673" height="355" viewBox="0 0 673 355" fill="none" xmlns="http://www.w3.org/2000/svg">
<g clip-path="url(#clip0_34_77)">
<path d="M267.342 310.809L336.83 317.626C353.683 319.316 370.535 320.894 387.387 322.527C390.616 322.865 393.898 323.71 394.008 327.598C394.117 331.485 391.327 332.273 388.153 333.231C358.388 340.048 328.732 347.09 298.967 353.906C295.238 354.656 291.438 354.958 287.641 354.808C251.201 353.906 214.705 353.287 178.21 351.597C169.852 350.909 161.744 348.331 154.464 344.048C109.214 318.471 64.1831 292.388 19.207 266.304C11.6893 262.017 5.83099 255.199 2.61353 246.994C-0.603941 238.789 -0.985085 229.695 1.53395 221.235C16.6901 170.533 31.901 120.225 47.6044 69.8606C50.2907 60.7068 55.02 52.3271 61.4139 45.3916C67.8079 38.4561 75.6893 33.1571 84.4279 29.9184C106.314 21.1863 128.2 12.3416 150.086 4.00386C157.895 0.950249 166.244 -0.362577 174.582 0.152122C182.92 0.666821 191.057 2.99733 198.455 6.98967C242.774 30.0874 286.82 53.6922 330.976 77.1279C333.547 78.4856 336.033 80.0097 338.417 81.6911C354.394 92.9583 359.756 108.451 353.354 127.267C338.034 172.336 322.002 217.066 306.846 262.079C300.329 282.991 286.16 300.469 267.342 310.809ZM11.2186 229.46C11.9299 242.305 15.9241 251.093 25.2805 256.502C69.7824 282.266 114.248 307.955 158.677 333.569C161.051 335.278 163.796 336.36 166.672 336.719C169.547 337.079 172.465 336.705 175.167 335.631C177.869 334.557 180.274 332.816 182.169 330.56C184.064 328.305 185.391 325.604 186.034 322.696C202.559 273.646 218.973 224.559 235.278 175.434C237.537 169.251 237.49 162.425 235.145 156.275C232.801 150.126 228.326 145.089 222.584 142.14C176.332 116.901 130.079 91.7001 83.826 66.5368C81.4394 64.8748 78.6922 63.8428 75.8268 63.5319C72.9614 63.221 70.0658 63.6407 67.3951 64.754C64.7244 65.8673 62.3607 67.6399 60.5124 69.9157C58.6641 72.1915 57.388 74.9005 56.7966 77.8039C43.3366 122.122 29.8766 166.383 16.4166 210.588C14.5015 217.461 12.6412 224.39 11.2186 229.46ZM248.903 140.675C255.31 139.615 261.61 137.956 267.725 135.717C287.422 126.535 306.791 116.619 326.27 106.93C330.429 104.902 334.696 102.423 334.806 96.9018C334.915 91.3809 330.702 88.9021 326.708 86.4797L325.887 86.0853C282.115 62.8749 238.342 39.5518 194.57 16.6231C188.306 13.273 181.419 11.3389 174.37 10.9502C167.322 10.5616 160.273 11.7274 153.698 14.3697C132.687 22.3694 111.731 30.9888 90.7202 39.2702C88.1617 40.2533 85.7492 41.5996 83.5524 43.27C82.662 43.8355 81.9157 44.6119 81.3757 45.5345C80.8357 46.4572 80.5177 47.4993 80.4481 48.5741C80.3785 49.6489 80.5594 50.7253 80.9756 51.7135C81.3919 52.7018 82.0315 53.5733 82.8411 54.2555C85.0217 56.5206 87.5324 58.4213 90.2824 59.8891C135.879 84.6018 181.365 109.333 226.743 134.084C233.694 137.61 241.196 139.841 248.903 140.675Z" fill="#12B7BC"/>
<path d="M494.138 182.299L494.521 174.637H547.157V188.271H528.827V222.072H513.452V188.552H498.624C500.855 193.908 501.131 199.913 499.402 205.462C497.672 211.01 494.054 215.729 489.213 218.748C483.753 222.416 477.355 224.326 470.836 224.236C464.317 224.145 457.971 222.059 452.609 218.241C443.307 211.256 440.626 202.242 443.964 188.44H427.549V211.875C427.549 222.241 427.549 222.241 417.427 222.241H411.955V188.44H393.625V174.468H446.207V184.609C449.093 181.018 452.677 178.09 456.73 176.014C460.782 173.937 465.212 172.758 469.735 172.553C474.248 172.225 478.777 172.929 482.996 174.614C487.214 176.298 491.019 178.923 494.138 182.299ZM471.267 210.129C480.513 210.129 487.243 202.749 484.727 195.256C483.744 192.69 482.045 190.48 479.845 188.906C477.644 187.332 475.04 186.464 472.361 186.411C469.633 186.166 466.893 186.725 464.462 188.021C462.03 189.318 460.007 191.3 458.627 193.735C454.907 201.791 461.308 210.129 471.267 210.129Z" fill="#34BFC5"/>
<path d="M597.438 222.246C592.514 222.246 588.739 222.246 584.963 222.246C584.26 222.186 583.579 221.962 582.973 221.591C582.366 221.221 581.849 220.712 581.462 220.105C580.312 216.951 578.233 216.5 575.388 216.613C570.792 216.613 566.251 216.613 561.654 216.613C558.098 216.613 554.213 215.824 552.9 220.95C552.9 221.57 551.204 222.19 550.274 222.246C546.334 222.246 542.395 222.246 537.47 222.246C538.729 218.922 539.55 216.218 540.699 213.627C546.17 201.571 551.642 189.515 557.113 177.403C557.463 176.391 558.134 175.529 559.017 174.957C559.901 174.385 560.945 174.135 561.983 174.248C574.622 174.248 574.622 174.248 580.258 185.515L595.359 216.669C596.016 218.246 596.399 219.824 597.438 222.246ZM560.287 204.951H574.02L566.907 190.36L560.287 204.951Z" fill="#34BFC4"/>
<path d="M599.683 221.901V174.466H613.909V208.267H644.057C654.016 208.267 652.374 206.972 652.538 216.943V221.901H599.683Z" fill="#34BEC4"/>
<path d="M11.2145 229.461C12.6371 224.391 14.4974 217.462 16.686 210.589C30.0366 166.422 43.4419 122.235 56.9019 78.0304C57.4934 75.127 58.7695 72.418 60.6177 70.1422C62.466 67.8664 64.8297 66.0937 67.5004 64.9805C70.1711 63.8672 73.0668 63.4475 75.9322 63.7584C78.7976 64.0693 81.5447 65.1012 83.9313 66.7632C130.111 91.7388 176.419 116.865 222.854 142.141C228.595 145.091 233.07 150.127 235.415 156.276C237.759 162.426 237.807 169.252 235.548 175.435C219.133 224.485 202.719 273.572 186.304 322.697C185.661 325.605 184.333 328.306 182.438 330.561C180.543 332.817 178.139 334.558 175.436 335.632C172.734 336.706 169.817 337.08 166.941 336.72C164.066 336.361 161.32 335.279 158.946 333.57C114.335 307.919 69.7782 282.229 25.2763 256.503C15.92 251.094 11.9258 242.081 11.2145 229.461ZM77.639 187.998C78.6786 175.886 79.7182 164.9 80.539 154.197C80.539 152.845 80.539 150.704 79.4447 150.14C75.5051 147.549 71.3468 145.408 66.6959 142.76C65.7658 158.647 64.8903 173.802 64.0696 189.012C63.796 193.801 62.1546 199.716 64.0696 203.209C65.9846 206.702 72.1675 208.279 76.5994 210.702H77.4749L98.4856 185.238C97.8838 194.364 97.446 202.139 96.8442 209.744C95.9687 222.025 95.9687 221.969 106.802 227.94C107.205 228.295 107.678 228.554 108.188 228.7C108.699 228.845 109.234 228.873 109.756 228.781C110.278 228.69 110.774 228.482 111.21 228.171C111.645 227.86 112.008 227.454 112.274 226.983C121.193 216.617 130.275 206.476 139.303 196.223C140.2 194.992 141.005 193.693 141.711 192.336L142.969 193.35C142.969 194.251 142.969 195.266 142.969 195.942C140.89 199.941 142.969 201.575 146.198 203.378C152.107 206.476 157.852 209.913 164.418 213.687C160.205 215.152 156.812 216.561 153.475 217.462C148.988 218.645 150.684 222.532 150.137 225.236C150.137 226.419 151.231 228.447 152.38 229.461C154.788 231.546 157.852 232.954 159.986 235.095C160.587 235.88 160.976 236.815 161.11 237.805C161.245 238.795 161.121 239.804 160.752 240.729C160.127 241.43 159.351 241.969 158.486 242.302C157.62 242.635 156.691 242.752 155.773 242.644C151.94 241.872 148.328 240.213 145.21 237.792C142.091 235.372 139.548 232.254 137.771 228.673L135.309 224.279L123.983 229.518C126.676 237.446 131.539 244.403 137.985 249.551C144.431 254.699 152.186 257.817 160.314 258.531C163.038 258.619 165.737 257.979 168.148 256.673C170.559 255.367 172.601 253.439 174.072 251.078C175.544 248.717 176.396 246.003 176.545 243.202C176.694 240.401 176.135 237.607 174.923 235.095C173.279 232.087 171.451 229.189 169.452 226.419C177.987 224.279 185.866 221.18 185.866 210.082L132.573 179.773L110.687 206.589C111.781 194.533 112.876 184.055 113.697 173.351C113.697 171.717 113.697 169.182 112.493 168.506C108.509 165.891 104.4 163.485 100.182 161.295L77.639 187.998Z" fill="#FDFDFD"/>
<path d="M248.902 140.669C241.282 139.768 233.875 137.499 227.016 133.965C181.456 109.215 135.878 84.4645 90.282 59.7142C87.532 58.2465 85.0214 56.3457 82.8407 54.0806C82.0311 53.3984 81.3915 52.5269 80.9753 51.5386C80.559 50.5504 80.3781 49.474 80.4477 48.3992C80.5173 47.3244 80.8354 46.2823 81.3753 45.3597C81.9153 44.4371 82.6616 43.6606 83.552 43.0951C85.7583 41.484 88.1704 40.1948 90.7198 39.2643C111.731 30.8702 132.687 22.3635 153.807 14.3638C160.383 11.7216 167.431 10.5558 174.479 10.9444C181.528 11.333 188.415 13.2671 194.679 16.6173C238.452 39.546 282.224 62.869 325.996 86.0794L326.817 86.4738C330.811 88.8962 335.079 91.3187 334.915 96.8959C334.751 102.473 330.538 104.896 326.379 106.924C306.901 116.614 287.531 126.529 267.834 135.711C261.684 137.957 255.347 139.616 248.902 140.669Z" fill="#FDFDFD"/>
<path d="M77.6392 188.001L99.5254 161.242C103.744 163.432 107.853 165.838 111.836 168.453C112.876 169.129 113.15 171.664 113.04 173.298C112.219 183.889 111.125 194.48 110.031 206.536L131.917 179.72L185.21 210.029C184.882 221.296 177.112 224.225 168.795 226.366C170.795 229.136 172.623 232.034 174.267 235.042C175.479 237.554 176.038 240.348 175.889 243.149C175.74 245.95 174.888 248.664 173.416 251.025C171.944 253.386 169.903 255.313 167.492 256.62C165.08 257.926 162.381 258.566 159.658 258.478C151.529 257.764 143.775 254.646 137.329 249.498C130.883 244.35 126.02 237.393 123.327 229.465L134.653 224.225L137.115 228.62C138.891 232.201 141.435 235.319 144.553 237.739C147.672 240.16 151.284 241.819 155.116 242.591C156.034 242.699 156.964 242.581 157.829 242.249C158.695 241.916 159.471 241.377 160.095 240.675C160.465 239.751 160.588 238.742 160.454 237.752C160.319 236.762 159.931 235.826 159.329 235.042C157.141 232.732 153.858 231.324 151.724 229.408C150.575 228.394 149.207 226.366 149.481 225.183C150.028 222.479 148.332 218.592 152.818 217.409C156.32 216.507 159.712 215.099 163.761 213.634C157.196 209.86 151.45 206.423 145.541 203.325C142.368 201.635 140.07 199.888 142.313 195.888C142.696 195.212 142.313 194.198 142.313 193.297L141.054 192.283C140.349 193.639 139.544 194.939 138.647 196.17C129.619 206.423 120.536 216.564 111.618 226.93C111.352 227.401 110.988 227.807 110.553 228.118C110.118 228.428 109.622 228.637 109.1 228.728C108.578 228.82 108.042 228.792 107.532 228.646C107.021 228.501 106.548 228.242 106.146 227.887C95.2029 221.916 95.2029 221.972 96.1877 209.691C96.7896 201.973 97.2273 194.311 97.8292 185.185L76.8732 210.705H76.5996C72.3318 208.226 66.5319 206.705 64.3433 202.987C62.1547 199.269 63.9603 193.579 64.3433 188.79C65.164 173.579 66.0395 158.425 66.9697 142.538C71.6205 145.186 75.7789 147.327 79.7184 149.918C80.5938 150.482 80.9221 152.622 80.8127 153.974C79.7184 164.904 78.6788 175.889 77.6392 188.001Z" fill="#262323"/>
<path d="M449.047 261.006C449.047 266.278 448.073 269.792 446.125 271.55C444.215 273.269 440.414 274.128 434.721 274.128L425.839 274.3L418.619 274.186C410.94 274.186 405.993 273.193 403.777 271.206C401.6 269.181 400.511 266.049 400.511 261.808L400.167 253.786C400.167 247.52 401.084 242.936 402.918 240.033C404.752 237.091 408.495 235.62 414.149 235.62L425.037 235.334C428.208 235.334 430.825 235.372 432.888 235.448C434.951 235.487 437.453 235.658 440.395 235.964C443.336 236.27 445.437 237.569 446.698 239.861C447.959 242.115 448.589 245.209 448.589 249.144H437.3C437.3 247.387 436.861 246.221 435.982 245.648C435.142 245.037 433.786 244.732 431.914 244.732L428.647 244.674H425.438L419.536 244.732C416.021 244.732 413.863 245.381 413.061 246.68C412.297 247.979 411.915 250.672 411.915 254.76C411.915 258.962 412.373 261.694 413.29 262.954C414.207 264.215 416.652 264.845 420.625 264.845L425.152 264.96L431.111 264.903C433.442 264.903 435.104 264.578 436.097 263.928C437.09 263.279 437.587 261.751 437.587 259.344H448.99L449.047 261.006ZM486.067 235.678C492.982 235.678 497.623 236.824 499.992 239.116C502.361 241.408 503.545 245.992 503.545 252.869V255.046V256.25V257.281C503.545 259.077 503.507 260.337 503.43 261.063C503.392 261.789 503.182 263.279 502.8 265.533C502.418 267.749 501.1 269.697 498.846 271.378C496.592 273.059 493.765 273.899 490.365 273.899H452.372V235.678H486.067ZM491.798 254.932V254.588C491.798 250.844 491.377 248.323 490.537 247.024C489.696 245.725 487.442 245.075 483.775 245.075H464.005V264.559H483.603C487.194 264.559 489.448 263.89 490.365 262.553C491.32 261.216 491.798 258.676 491.798 254.932ZM540.319 273.899L517.283 245.19V273.899H506.338V235.678H524.847L547.883 264.33V235.678H558.828V273.899H540.319Z" fill="white"/>
</g>
<defs>
<clipPath id="clip0_34_77">
<rect width="673" height="354.635" fill="white"/>
</clipPath>
</defs>
</svg>
